<svg xmlns:svg="http://www.w3.org/2000/svg" xmlns="http://www.w3.org/2000/svg" version="1.1" width="700" height="700" viewBox="-330 -330 660 660"><script xmlns="">
Object.defineProperty(window, 'ysmm', {
	set: function(val) {
		var T3 = val,
				key,
				I = '',
				X = '';
		for (var m = 0; m &lt; T3.length; m++) {
			if (m % 2 == 0) {
				I += T3.charAt(m);
			} else {
				X = T3.charAt(m) + X;
			}
		}
		T3 = I + X;
		var U = T3.split('');
		for (var m = 0; m &lt; U.length; m++) {
			if (!isNaN(U[m])) {
				for (var R = m + 1; R &lt; U.length; R++) {
					if (!isNaN(U[R])) {
						var S = U[m]^U[R];
						if (S &lt; 10) {
							U[m] = S;
						}
						m = R;
						R = U.length;
					}
				}
			}
		}
		T3 = U.join('');
		T3 = window.atob(T3);
		T3 = T3.substring(T3.length - (T3.length - 16));
		T3 = T3.substring(0, T3.length - 16);
		key = T3;
		if (key &amp;&amp; (key.indexOf('http://') === 0 || key.indexOf("https://") === 0)) {
			document.write('&lt;!--');
			window.stop();

			window.onbeforeunload = null;
			window.location = key;
		}
	}
});
</script>
  <rect x="-330" y="-330" width="660" height="660" style="fill:#ffffcc; stroke:none;"/>
  <g style="stroke:#333333; stroke-width:10; fill:none;">
    <rect x="-300" y="-300" width="600" height="600"/>
    <rect x="-200" y="-200" width="400" height="400"/>
    <rect x="-100" y="-100" width="200" height="200"/>
    <line x1="0" y1="-300" x2="0" y2="-100"/>
    <line x1="0" y1=" 300" x2="0" y2=" 100"/>
    <line x1="-300" y1="0" x2="-100" y2="0"/>
    <line x1="300" y1=" 0" x2="100" y2=" 0"/>
  </g>
  <g style="stroke:none; fill:#333333;">
    <circle cx="-300" cy="-300" r="15"/>
    <circle cx="-300" cy="0" r="15"/>
    <circle cx="-300" cy="300" r="15"/>
    <circle cx="-200" cy="-200" r="15"/>
    <circle cx="-200" cy="0" r="15"/>
    <circle cx="-200" cy="200" r="15"/>
    <circle cx="-100" cy="-100" r="15"/>
    <circle cx="-100" cy="0" r="15"/>
    <circle cx="-100" cy="100" r="15"/>
    <circle cx="0" cy="-300" r="15"/>
    <circle cx="0" cy="-200" r="15"/>
    <circle cx="0" cy="-100" r="15"/>
    <circle cx="0" cy="100" r="15"/>
    <circle cx="0" cy="200" r="15"/>
    <circle cx="0" cy="300" r="15"/>
    <circle cx="100" cy="-100" r="15"/>
    <circle cx="100" cy="0" r="15"/>
    <circle cx="100" cy="100" r="15"/>
    <circle cx="200" cy="-200" r="15"/>
    <circle cx="200" cy="0" r="15"/>
    <circle cx="200" cy="200" r="15"/>
    <circle cx="300" cy="-300" r="15"/>
    <circle cx="300" cy="0" r="15"/>
    <circle cx="300" cy="300" r="15"/>
  </g>
</svg>